<?xml version="1.0" standalone="no"?><!DOCTYPE svg PUBLIC "-//W3C//DTD SVG 1.1//EN" "http://www.w3.org/Graphics/SVG/1.1/DTD/svg11.dtd" ><svg xmlns="http://www.w3.org/2000/svg"><metadata>Generated by Material</metadata><defs><font id="Glyphter" horiz-adv-x="0"><font-face units-per-em="1024" ascent="1024" descent="0" font-family="Material" font-weight="normal" /><missing-glyph horiz-adv-x="0" /><glyph unicode="&#x0041;" d="M712.53,5.019C737.946,-20.398,820.549,68.559,801.487,93.976C801.487,93.976,382.118,513.345,382.118,513.345C382.118,513.345,801.487,932.714,801.487,932.714C826.903,958.131,737.946,1040.734,712.53,1021.672C712.53,1021.672,223.266,532.407,223.266,532.407C216.911,526.053,216.911,506.991,223.266,500.637C223.266,500.637,712.53,5.019,712.53,5.019C712.53,5.019,712.53,5.019,712.53,5.019" class="icon-cm_arrow_back"/><glyph unicode="&#x0042;" d="M1019.481,712.53C1044.898,737.946,955.941,820.549,930.524,801.487C930.524,801.487,511.155,382.118,511.155,382.118C511.155,382.118,91.786,801.487,91.786,801.487C66.369,826.903,-16.234,737.946,2.828,712.53C2.828,712.53,492.093,223.266,492.093,223.266C498.447,216.911,517.509,216.911,523.863,223.266C523.863,223.266,1019.481,712.53,1019.481,712.53C1019.481,712.53,1019.481,712.53,1019.481,712.53" class="icon-cm_arrow_downward"/><glyph unicode="&#x0043;" d="M478.785,230.242C478.785,230.242,585.7,201.083,585.7,201.083C585.7,201.083,585.7,201.083,585.7,201.083C585.7,201.083,206.638,99.028,206.638,99.028C177.48,89.309,148.321,108.748,138.602,137.906C138.602,137.906,2.528,643.322,2.528,643.322C-7.191,672.481,12.248,701.639,41.406,711.359C41.406,711.359,332.992,789.115,332.992,789.115C332.992,789.115,318.413,730.798,318.413,730.798C318.413,730.798,55.986,662.761,55.986,662.761C55.986,662.761,192.059,157.346,192.059,157.346C192.059,157.346,478.785,230.242,478.785,230.242C478.785,230.242,478.785,230.242,478.785,230.242M1023.079,721.078C1023.079,721.078,887.006,186.504,887.006,186.504C877.286,157.346,848.128,137.906,818.969,147.626C818.969,147.626,585.7,205.943,585.7,205.943C585.7,205.943,478.785,235.102,478.785,235.102C478.785,235.102,260.096,288.559,260.096,288.559C230.937,293.419,211.498,327.437,221.218,351.736C221.218,351.736,318.413,735.658,318.413,735.658C318.413,735.658,332.992,793.975,332.992,793.975C332.992,793.975,357.291,886.31,357.291,886.31C367.011,915.469,396.169,934.908,425.328,925.188C425.328,925.188,984.201,784.255,984.201,784.255C1013.36,779.395,1027.939,750.237,1023.079,721.078C1023.079,721.078,1023.079,721.078,1023.079,721.078M969.622,730.798C969.622,730.798,410.749,871.731,410.749,871.731C410.749,871.731,274.675,342.017,274.675,342.017C274.675,342.017,833.548,205.943,833.548,205.943C833.548,205.943,969.622,730.798,969.622,730.798C969.622,730.798,969.622,730.798,969.622,730.798M726.633,662.761C750.932,633.603,780.091,594.724,765.512,550.987C750.932,497.529,716.914,478.09,712.054,473.23C707.194,468.371,673.176,512.108,687.755,516.968C687.755,516.968,707.194,531.547,716.914,560.706C721.774,580.145,707.194,599.584,682.895,628.743C682.895,628.743,682.895,628.743,678.036,633.603C678.036,633.603,619.719,410.053,619.719,410.053C609.999,371.175,566.261,346.876,527.383,356.596C488.505,366.315,464.206,405.194,473.926,448.931C483.645,487.81,527.383,512.108,566.261,502.389C575.981,502.389,580.84,497.529,590.56,492.669C590.56,492.669,648.877,716.219,648.877,716.219C653.737,730.798,702.335,716.219,697.475,701.639C697.475,691.92,712.054,672.481,726.633,662.761C726.633,662.761,726.633,662.761,726.633,662.761C726.633,662.761,726.633,662.761,726.633,662.761M726.633,662.761" class="icon-cm_audio_library"/><glyph unicode="&#x0044;" d="M666.403,907.053C626.469,935.577,575.127,975.51,575.127,998.329C575.127,1032.557,443.918,1032.557,443.918,998.329C443.918,998.329,443.918,387.922,443.918,387.922C421.099,393.627,403.985,399.331,381.166,399.331C272.776,399.331,181.5,308.056,181.5,199.666C181.5,91.276,267.071,0,381.166,0C489.556,0,580.831,91.276,580.831,199.666C580.831,199.666,580.831,810.072,580.831,810.072C586.536,810.072,586.536,804.368,592.241,804.368C666.403,747.32,712.04,701.682,712.04,650.34C712.04,564.769,666.403,519.131,666.403,519.131C637.879,496.312,746.269,410.741,757.678,422.15C769.088,433.56,843.249,513.426,843.249,650.34C843.249,770.139,746.269,850.006,666.403,907.053C666.403,907.053,666.403,907.053,666.403,907.053C666.403,907.053,666.403,907.053,666.403,907.053M666.403,907.053" class="icon-cm_audio"/><glyph unicode="&#x0045;" d="M559.949,465.051C559.949,465.051,559.949,465.051,559.949,465.051C559.949,465.051,1005.241,465.051,1005.241,465.051C1034.441,465.051,1027.141,559.949,1005.241,559.949C1005.241,559.949,559.949,559.949,559.949,559.949C559.949,559.949,559.949,1005.241,559.949,1005.241C559.949,1027.141,465.051,1034.441,465.051,1005.241C465.051,1005.241,465.051,559.949,465.051,559.949C465.051,559.949,465.051,559.949,465.051,559.949C465.051,559.949,19.759,559.949,19.759,559.949C-9.441,559.949,-2.141,465.051,19.759,465.051C19.759,465.051,465.051,465.051,465.051,465.051C465.051,465.051,465.051,19.759,465.051,19.759C465.051,-2.141,559.949,-9.441,559.949,19.759C559.949,19.759,559.949,465.051,559.949,465.051C559.949,465.051,559.949,465.051,559.949,465.051" class="icon-cm_add"/><glyph unicode="&#x0046;" d="M950.749,186.696C945.092,175.381,933.777,158.409,916.805,158.409C916.805,158.409,107.788,158.409,107.788,158.409C96.473,158.409,79.501,175.381,73.843,186.696C68.186,198.011,73.843,220.641,79.501,231.956C79.501,231.956,96.473,248.928,113.446,288.53C130.418,328.133,147.39,390.365,147.39,486.541C147.39,594.033,170.02,741.127,283.169,837.304C322.772,871.249,362.374,888.221,390.661,893.878C390.661,916.508,396.319,950.453,418.948,978.74C435.921,995.713,458.551,1024,509.468,1024C560.385,1024,583.015,1001.37,599.987,978.74C622.617,950.453,628.274,916.508,628.274,893.878C656.562,888.221,696.164,871.249,735.766,837.304C848.915,746.785,871.545,594.033,871.545,486.541C871.545,390.365,888.517,328.133,905.49,288.53C922.462,248.928,939.435,231.956,939.435,231.956C950.749,220.641,956.407,198.011,950.749,186.696C950.749,186.696,950.749,186.696,950.749,186.696M520.783,0C588.672,0,645.247,45.26,667.877,101.834C667.877,101.834,373.689,101.834,373.689,101.834C396.319,45.26,452.893,0,520.783,0C520.783,0,520.783,0,520.783,0" class="icon-cm_bell"/><glyph unicode="&#x0047;" d="M1019.717,779.718C1043.745,803.746,959.647,881.836,941.626,857.808C941.626,857.808,394.991,311.173,394.991,311.173C394.991,311.173,82.628,617.529,82.628,617.529C58.6,641.557,-19.491,557.459,4.537,539.438C4.537,539.438,376.97,167.005,376.97,167.005C382.977,160.998,400.998,160.998,407.005,167.005C407.005,167.005,1019.717,779.718,1019.717,779.718C1019.717,779.718,1019.717,779.718,1019.717,779.718" class="icon-cm_check"/><glyph unicode="&#x0048;" d="M603.458,512.342C603.458,512.342,603.458,512.342,603.458,512.342C603.458,512.342,1020.507,929.39,1020.507,929.39C1042.457,951.34,954.657,1039.14,932.707,1017.19C932.707,1017.19,515.658,600.141,515.658,600.141C515.658,600.141,91.293,1017.19,91.293,1017.19C69.343,1039.14,-18.457,951.34,3.493,929.39C3.493,929.39,420.542,512.342,420.542,512.342C420.542,512.342,420.542,512.342,420.542,512.342C420.542,512.342,3.493,95.293,3.493,95.293C-18.457,73.343,69.343,-14.457,91.293,7.493C91.293,7.493,508.342,424.542,508.342,424.542C508.342,424.542,932.707,7.493,932.707,7.493C954.657,-14.457,1042.457,73.343,1020.507,95.293C1020.507,95.293,603.458,512.342,603.458,512.342C603.458,512.342,603.458,512.342,603.458,512.342" class="icon-cm_close"/><glyph unicode="&#x0049;" d="M943.911,1009.897C943.911,1009.897,80.089,1009.897,80.089,1009.897C34.324,1009.897,0,975.573,0,929.807C0,929.807,0,94.589,0,94.589C0,48.824,34.324,14.5,80.089,14.5C80.089,14.5,943.911,14.5,943.911,14.5C989.676,14.5,1024,48.824,1024,94.589C1024,94.589,1024,929.807,1024,929.807C1024,969.852,989.676,1009.897,943.911,1009.897C943.911,1009.897,943.911,1009.897,943.911,1009.897C943.911,1009.897,943.911,1009.897,943.911,1009.897M943.911,924.087C943.911,924.087,943.911,392.064,943.911,392.064C943.911,392.064,846.659,477.874,846.659,477.874C823.777,500.757,783.732,500.757,760.849,477.874C760.849,477.874,606.391,340.578,606.391,340.578C606.391,340.578,377.564,609.45,377.564,609.45C354.682,638.053,308.916,638.053,286.034,609.45C286.034,609.45,80.089,346.299,80.089,346.299C80.089,346.299,80.089,924.087,80.089,924.087C80.089,924.087,943.911,924.087,943.911,924.087C943.911,924.087,943.911,924.087,943.911,924.087M594.95,712.422C594.95,775.349,646.436,826.835,709.363,826.835C772.291,826.835,823.777,775.349,823.777,712.422C823.777,649.494,772.291,598.008,709.363,598.008C640.715,598.008,594.95,649.494,594.95,712.422C594.95,712.422,594.95,712.422,594.95,712.422C594.95,712.422,594.95,712.422,594.95,712.422M594.95,712.422" class="icon-cm_image"/><glyph unicode="&#x004a;" d="M18.506,758.867C18.506,758.867,820.434,758.867,820.434,758.867C845.108,777.373,845.108,857.566,820.434,882.241C820.434,882.241,18.506,882.241,18.506,882.241C-6.169,857.566,-6.169,783.542,18.506,758.867C18.506,758.867,18.506,758.867,18.506,758.867M18.506,450.434C18.506,450.434,635.373,450.434,635.373,450.434C660.048,475.108,660.048,549.133,635.373,573.807C635.373,573.807,18.506,573.807,18.506,573.807C-6.169,549.133,-6.169,475.108,18.506,450.434C18.506,450.434,18.506,450.434,18.506,450.434M18.506,142C18.506,142,1005.494,142,1005.494,142C1030.169,166.675,1030.169,240.699,1005.494,265.373C1005.494,265.373,18.506,265.373,18.506,265.373C-6.169,240.699,-6.169,166.675,18.506,142C18.506,142,18.506,142,18.506,142" class="icon-cm_menu"/><glyph unicode="&#x004b;" d="M785.906,589.738C785.906,589.738,785.906,509.319,785.906,509.319C785.906,434.262,759.099,369.927,705.487,316.314C651.874,262.702,587.539,235.895,512.482,235.895C437.424,235.895,373.089,262.702,319.476,316.314C265.864,369.927,239.058,434.262,239.058,509.319C239.058,509.319,239.058,589.738,239.058,589.738C239.058,600.461,164,600.461,164,589.738C164,589.738,164,509.319,164,509.319C164,418.178,196.168,343.12,255.141,273.424C314.115,209.089,389.173,166.199,474.953,160.838C474.953,160.838,474.953,80.419,474.953,80.419C474.953,80.419,319.476,80.419,319.476,80.419C303.393,64.335,303.393,16.084,319.476,0C319.476,0,705.487,0,705.487,0C721.571,10.723,721.571,64.335,705.487,80.419C705.487,80.419,550.01,80.419,550.01,80.419C550.01,80.419,550.01,160.838,550.01,160.838C635.791,171.56,710.848,209.089,769.822,273.424C828.796,337.759,860.963,418.178,860.963,509.319C860.963,509.319,860.963,589.738,860.963,589.738C860.963,600.461,785.906,600.461,785.906,589.738C785.906,589.738,785.906,589.738,785.906,589.738M421.34,637.99C421.34,637.99,319.476,637.99,319.476,637.99C319.476,637.99,319.476,568.293,319.476,568.293C319.476,568.293,421.34,568.293,421.34,568.293C437.424,568.293,437.424,509.319,421.34,509.319C421.34,509.319,319.476,509.319,319.476,509.319C319.476,455.707,340.921,412.817,378.45,369.927C415.979,332.398,464.23,310.953,517.843,310.953C571.455,310.953,614.346,332.398,657.236,369.927C694.764,407.455,716.209,455.707,716.209,509.319C716.209,509.319,619.707,509.319,619.707,509.319C603.623,509.319,603.623,568.293,619.707,568.293C619.707,568.293,716.209,568.293,716.209,568.293C716.209,568.293,716.209,637.99,716.209,637.99C716.209,637.99,619.707,637.99,619.707,637.99C603.623,637.99,603.623,696.963,619.707,696.963C619.707,696.963,716.209,696.963,716.209,696.963C716.209,696.963,716.209,772.021,716.209,772.021C716.209,772.021,619.707,772.021,619.707,772.021C603.623,772.021,603.623,830.995,619.707,830.995C619.707,830.995,716.209,830.995,716.209,830.995C716.209,884.607,694.764,927.497,657.236,965.026C619.707,1002.555,571.455,1024,517.843,1024C464.23,1024,421.34,1002.555,378.45,965.026C340.921,927.497,324.838,884.607,319.476,830.995C319.476,830.995,421.34,830.995,421.34,830.995C437.424,830.995,437.424,772.021,421.34,772.021C421.34,772.021,319.476,772.021,319.476,772.021C319.476,772.021,319.476,696.963,319.476,696.963C319.476,696.963,421.34,696.963,421.34,696.963C437.424,696.963,437.424,637.99,421.34,637.99C421.34,637.99,421.34,637.99,421.34,637.99C421.34,637.99,421.34,637.99,421.34,637.99M421.34,637.99" class="icon-cm_microphone"/><glyph unicode="&#x004c;" d="M230.4,512.2C230.4,448.2,179.2,397,115.2,397C51.2,397,0,448.2,0,512.2C0,576.2,51.2,627.4,115.2,627.4C179.2,627.4,230.4,576.2,230.4,512.2C230.4,512.2,230.4,512.2,230.4,512.2C230.4,512.2,230.4,512.2,230.4,512.2M230.4,512.2M627.2,512.2C627.2,448.2,576,397,512,397C448,397,396.8,448.2,396.8,512.2C396.8,576.2,448,627.4,512,627.4C576,627.4,627.2,576.2,627.2,512.2C627.2,512.2,627.2,512.2,627.2,512.2C627.2,512.2,627.2,512.2,627.2,512.2M627.2,512.2M1024,512.2C1024,448.2,972.8,397,908.8,397C844.8,397,793.6,448.2,793.6,512.2C793.6,576.2,844.8,627.4,908.8,627.4C972.8,627.4,1024,576.2,1024,512.2C1024,512.2,1024,512.2,1024,512.2C1024,512.2,1024,512.2,1024,512.2M1024,512.2" class="icon-cm_more_horiz"/><glyph unicode="&#x004d;" d="M512.2,230.4C576.2,230.4,627.4,179.2,627.4,115.2C627.4,51.2,576.2,0,512.2,0C448.2,0,397,51.2,397,115.2C397,179.2,448.2,230.4,512.2,230.4C512.2,230.4,512.2,230.4,512.2,230.4C512.2,230.4,512.2,230.4,512.2,230.4M512.2,230.4M512.2,627.2C576.2,627.2,627.4,576,627.4,512C627.4,448,576.2,396.8,512.2,396.8C448.2,396.8,397,448,397,512C397,576,448.2,627.2,512.2,627.2C512.2,627.2,512.2,627.2,512.2,627.2C512.2,627.2,512.2,627.2,512.2,627.2M512.2,627.2M512.2,1024C576.2,1024,627.4,972.8,627.4,908.8C627.4,844.8,576.2,793.6,512.2,793.6C448.2,793.6,397,844.8,397,908.8C397,972.8,448.2,1024,512.2,1024C512.2,1024,512.2,1024,512.2,1024C512.2,1024,512.2,1024,512.2,1024M512.2,1024" class="icon-cm_more_vert"/><glyph unicode="&#x004e;" d="M318.543,1024C318.543,1024,194.2,1024,194.2,1024C164.943,1024,143,994.743,143,965.486C143,965.486,143,58.514,143,58.514C143,21.943,164.943,0,194.2,0C194.2,0,318.543,0,318.543,0C347.8,0,369.743,29.257,369.743,58.514C369.743,58.514,369.743,965.486,369.743,965.486C369.743,994.743,347.8,1024,318.543,1024C318.543,1024,318.543,1024,318.543,1024C318.543,1024,318.543,1024,318.543,1024M830.543,1024C830.543,1024,706.2,1024,706.2,1024C676.943,1024,655,994.743,655,965.486C655,965.486,655,58.514,655,58.514C655,21.943,676.943,0,706.2,0C706.2,0,830.543,0,830.543,0C859.8,0,881.743,29.257,881.743,58.514C881.743,58.514,881.743,965.486,881.743,965.486C881.743,994.743,859.8,1024,830.543,1024C830.543,1024,830.543,1024,830.543,1024C830.543,1024,830.543,1024,830.543,1024" class="icon-cm_pause"/><glyph unicode="&#x004f;" d="M82.204,254.586C82.204,254.586,257.586,79.204,257.586,79.204C257.586,79.204,240.613,62.232,240.613,62.232C234.956,56.575,229.298,50.917,223.641,50.917C223.641,50.917,42.602,0,42.602,0C36.945,0,36.945,0,31.287,0C25.63,0,14.315,5.657,8.657,5.657C3,11.315,3,16.972,3,28.287C3,33.945,3,33.945,3,39.602C3,39.602,53.917,220.641,53.917,220.641C53.917,226.298,59.575,231.956,65.232,237.613C65.232,237.613,82.204,254.586,82.204,254.586C82.204,254.586,82.204,254.586,82.204,254.586M1004.37,825.989C1015.685,837.304,1021.343,848.619,1021.343,865.591C1021.343,876.906,1015.685,882.564,1004.37,893.878C1004.37,893.878,947.796,950.453,947.796,950.453C947.796,950.453,891.221,1007.028,891.221,1007.028C879.906,1018.343,874.249,1024,862.934,1024C851.619,1024,840.304,1018.343,823.331,1007.028C823.331,1007.028,755.442,939.138,755.442,939.138C755.442,939.138,930.823,763.757,930.823,763.757C930.823,763.757,1004.37,825.989,1004.37,825.989C1004.37,825.989,1004.37,825.989,1004.37,825.989M710.182,882.564C710.182,882.564,127.464,305.503,127.464,305.503C127.464,305.503,302.845,130.122,302.845,130.122C302.845,130.122,879.906,712.84,879.906,712.84C879.906,712.84,710.182,882.564,710.182,882.564C710.182,882.564,710.182,882.564,710.182,882.564" class="icon-cm_pen"/><glyph unicode="&#x0050;" d="M892.609,781.175C892.609,781.175,783.955,781.175,783.955,781.175C783.955,781.175,681.019,929.86,681.019,929.86C675.301,941.297,663.863,941.297,652.426,941.297C652.426,941.297,372.212,941.297,372.212,941.297C360.775,941.297,349.338,941.297,343.619,929.86C343.619,929.86,234.965,781.175,234.965,781.175C234.965,781.175,137.748,781.175,137.748,781.175C63.405,781.175,0.5,723.989,0.5,649.646C0.5,649.646,0.5,215.029,0.5,215.029C0.5,140.686,63.405,83.5,137.748,83.5C137.748,83.5,886.891,83.5,886.891,83.5C961.233,83.5,1024.138,140.686,1024.138,215.029C1024.138,215.029,1024.138,649.646,1024.138,649.646C1029.857,718.27,966.952,781.175,892.609,781.175C892.609,781.175,892.609,781.175,892.609,781.175M515.178,226.466C383.65,226.466,274.995,329.402,274.995,460.931C274.995,592.46,383.65,695.396,515.178,695.396C646.707,695.396,755.362,592.46,755.362,460.931C755.362,329.402,646.707,226.466,515.178,226.466C515.178,226.466,515.178,226.466,515.178,226.466M515.178,295.09C417.961,295.09,343.619,369.432,343.619,466.65C343.619,558.148,423.68,638.209,515.178,638.209C612.396,638.209,686.738,563.867,686.738,466.65C686.738,369.432,612.396,295.09,515.178,295.09C515.178,295.09,515.178,295.09,515.178,295.09C515.178,295.09,515.178,295.09,515.178,295.09" class="icon-cm_photo_camera"/><glyph unicode="&#x0051;" d="M478.785,230.242C478.785,230.242,585.7,201.083,585.7,201.083C585.7,201.083,585.7,201.083,585.7,201.083C585.7,201.083,206.638,99.028,206.638,99.028C177.48,89.309,148.321,108.748,138.602,137.906C138.602,137.906,2.528,643.322,2.528,643.322C-7.191,672.481,12.248,701.639,41.406,711.359C41.406,711.359,332.992,789.115,332.992,789.115C332.992,789.115,318.413,730.798,318.413,730.798C318.413,730.798,55.986,662.761,55.986,662.761C55.986,662.761,192.059,157.346,192.059,157.346C192.059,157.346,478.785,230.242,478.785,230.242C478.785,230.242,478.785,230.242,478.785,230.242M765.512,560.706C804.39,550.987,848.128,575.285,857.847,614.163C867.567,653.042,843.268,691.92,804.39,706.499C765.512,716.219,721.774,691.92,712.054,653.042C697.475,609.304,721.774,570.426,765.512,560.706C765.512,560.706,765.512,560.706,765.512,560.706M1023.079,721.078C1023.079,721.078,887.006,186.504,887.006,186.504C877.286,157.346,848.128,137.906,818.969,147.626C818.969,147.626,585.7,205.943,585.7,205.943C585.7,205.943,478.785,235.102,478.785,235.102C478.785,235.102,260.096,288.559,260.096,288.559C230.937,293.419,211.498,327.437,221.218,351.736C221.218,351.736,318.413,735.658,318.413,735.658C318.413,735.658,332.992,793.975,332.992,793.975C332.992,793.975,357.291,886.31,357.291,886.31C367.011,915.469,396.169,934.908,425.328,925.188C425.328,925.188,984.201,784.255,984.201,784.255C1013.36,779.395,1027.939,750.237,1023.079,721.078C1023.079,721.078,1023.079,721.078,1023.079,721.078M969.622,730.798C969.622,730.798,410.749,871.731,410.749,871.731C410.749,871.731,318.413,502.389,318.413,502.389C318.413,502.389,493.365,638.462,493.365,638.462C512.804,653.042,541.962,643.322,551.682,623.883C551.682,623.883,653.737,414.913,653.737,414.913C653.737,414.913,775.231,478.09,775.231,478.09C794.67,487.81,818.969,482.95,828.688,463.511C828.688,463.511,877.286,395.474,877.286,395.474C877.286,395.474,969.622,730.798,969.622,730.798C969.622,730.798,969.622,730.798,969.622,730.798" class="icon-cm_photo_library"/><glyph unicode="&#x0052;" d="M902.325,556.274C902.325,556.274,187.344,1008.609,187.344,1008.609C136.274,1045.087,92.5,1015.905,92.5,950.243C92.5,950.243,92.5,74.757,92.5,74.757C92.5,9.095,136.274,-20.087,187.344,16.391C187.344,16.391,902.325,468.726,902.325,468.726C902.325,468.726,931.508,483.317,931.508,512.5C924.212,534.387,902.325,556.274,902.325,556.274C902.325,556.274,902.325,556.274,902.325,556.274C902.325,556.274,902.325,556.274,902.325,556.274M902.325,556.274" class="icon-cm_play"/><glyph unicode="&#x0053;" d="M0.5,626.522C0.5,518.172,42.636,415.842,120.889,337.589C223.219,235.258,373.706,193.122,512.153,229.239C566.328,241.278,614.483,265.356,656.62,301.472C656.62,301.472,951.572,0.5,951.572,0.5C975.65,0.5,1023.806,42.636,1023.806,66.714C1023.806,66.714,728.853,367.686,728.853,367.686C783.028,439.919,819.145,524.192,819.145,614.483C819.145,722.833,777.008,825.164,698.756,903.417C596.425,1005.747,445.939,1047.883,307.492,1011.767C241.278,993.708,175.064,957.592,126.908,909.436C42.636,837.203,0.5,734.872,0.5,626.522C0.5,626.522,0.5,626.522,0.5,626.522M325.55,921.475C433.9,951.572,548.27,915.456,626.522,843.222C686.717,783.028,716.814,704.775,716.814,626.522C716.814,542.25,686.717,470.017,626.522,409.822C590.406,373.706,542.25,343.608,488.075,331.569C379.725,301.472,265.356,337.589,187.103,409.822C126.908,470.017,96.811,548.27,96.811,626.522C96.811,710.795,126.908,783.028,187.103,843.222C229.239,879.339,277.394,909.436,325.55,921.475C325.55,921.475,325.55,921.475,325.55,921.475" class="icon-cm_search"/><glyph unicode="&#x0054;" d="M564.966,8C564.966,8,459.034,8,459.034,8C438.857,8,433.813,8,378.325,144.197C378.325,144.197,343.015,159.33,343.015,159.33C226.995,108.887,216.906,108.887,211.862,108.887C206.818,108.887,196.729,113.931,191.685,118.975C191.685,118.975,116.02,194.64,116.02,194.64C100.887,209.773,95.842,214.818,156.374,351.015C156.374,351.015,141.241,386.325,141.241,386.325C0,436.768,0,441.813,0,461.99C0,461.99,0,562.877,0,562.877C0,583.054,0,588.099,141.241,643.586C141.241,643.586,156.374,678.897,156.374,678.897C90.798,810.049,95.842,815.094,110.975,830.227C110.975,830.227,186.64,905.892,186.64,905.892C191.685,910.936,201.773,915.98,206.818,915.98C211.862,915.98,226.995,915.98,343.015,865.537C343.015,865.537,378.325,880.67,378.325,880.67C428.768,1016.867,438.857,1016.867,459.034,1016.867C459.034,1016.867,564.966,1016.867,564.966,1016.867C585.143,1016.867,590.187,1016.867,645.675,880.67C645.675,880.67,680.985,865.537,680.985,865.537C797.005,915.98,807.094,915.98,812.138,915.98C817.182,915.98,827.271,910.936,832.315,905.892C832.315,905.892,907.98,830.227,907.98,830.227C923.113,815.094,928.158,810.049,867.626,673.852C867.626,673.852,882.759,638.542,882.759,638.542C1024,588.099,1024,583.054,1024,562.877C1024,562.877,1024,456.946,1024,456.946C1024,436.768,1024,431.724,882.759,376.236C882.759,376.236,867.626,340.926,867.626,340.926C933.202,209.773,928.158,204.729,913.025,189.596C913.025,189.596,837.36,113.931,837.36,113.931C832.315,108.887,822.227,103.842,817.182,103.842C812.138,103.842,797.005,103.842,680.985,154.286C680.985,154.286,645.675,139.153,645.675,139.153C590.187,8,585.143,8,564.966,8C564.966,8,564.966,8,564.966,8C564.966,8,564.966,8,564.966,8M509.478,638.542C438.857,638.542,383.369,583.054,383.369,512.433C383.369,441.813,438.857,386.325,509.478,386.325C580.099,386.325,635.586,441.813,635.586,512.433C635.586,583.054,580.099,638.542,509.478,638.542C509.478,638.542,509.478,638.542,509.478,638.542C509.478,638.542,509.478,638.542,509.478,638.542" class="icon-cm_settings"/><glyph unicode="&#x0055;" d="M818.359,308.744C772.048,308.744,730.882,288.161,705.153,257.286C705.153,257.286,339.807,463.116,339.807,463.116C344.952,478.553,350.098,493.99,350.098,514.573C350.098,535.156,344.952,550.593,339.807,566.03C339.807,566.03,705.153,771.859,705.153,771.859C730.882,740.985,777.193,715.256,823.505,715.256C905.837,715.256,977.877,782.151,977.877,869.628C977.877,951.96,910.982,1024,823.505,1024C741.173,1024,669.133,957.106,669.133,869.628C669.133,859.337,669.133,849.045,674.279,838.754C674.279,838.754,303.786,627.779,303.786,627.779C278.058,653.508,242.038,668.945,200.872,668.945C118.54,668.945,46.5,602.05,46.5,514.573C46.5,432.241,113.394,360.201,200.872,360.201C242.038,360.201,278.058,375.638,303.786,401.367C303.786,401.367,674.279,190.392,674.279,190.392C669.133,180.101,669.133,169.809,669.133,154.372C669.133,72.04,736.028,0,823.505,0C905.837,0,977.877,66.894,977.877,154.372C972.731,241.849,905.837,308.744,818.359,308.744C818.359,308.744,818.359,308.744,818.359,308.744" class="icon-cm_share"/><glyph unicode="&#x0056;" d="M705.018,57.585C705.018,57.585,705.018,129.565,705.018,129.565C575.453,136.764,460.283,208.744,388.303,309.518C316.322,201.546,193.954,122.367,49.993,122.367C14.002,122.367,14.002,251.933,49.993,251.933C201.153,251.933,323.52,374.3,323.52,525.46C323.52,676.62,201.153,798.987,49.993,798.987C14.002,798.987,14.002,928.553,49.993,928.553C193.954,928.553,316.322,856.572,388.303,741.402C453.085,849.374,575.453,921.354,705.018,921.354C705.018,921.354,705.018,993.335,705.018,993.335C705.018,1014.929,733.811,1029.326,755.405,1022.128C755.405,1022.128,985.743,885.364,985.743,885.364C1007.338,870.968,1007.338,842.176,985.743,827.779C985.743,827.779,755.405,691.016,755.405,691.016C733.811,676.62,705.018,691.016,705.018,719.808C705.018,719.808,705.018,784.591,705.018,784.591C568.255,777.393,453.085,655.025,453.085,511.064C453.085,367.102,561.057,251.933,705.018,237.537C705.018,237.537,705.018,302.319,705.018,302.319C705.018,323.914,733.811,338.31,755.405,331.112C755.405,331.112,985.743,194.348,985.743,194.348C1007.338,179.952,1007.338,151.16,985.743,136.764C985.743,136.764,755.405,0,755.405,0C733.811,21.594,705.018,35.99,705.018,57.585C705.018,57.585,705.018,57.585,705.018,57.585C705.018,57.585,705.018,57.585,705.018,57.585" class="icon-cm_shuffle"/><glyph unicode="&#x0057;" d="M81.774,1023.2C81.774,1023.2,140.14,1023.2,140.14,1023.2C162.027,1023.2,183.914,994.017,183.914,964.834C183.914,964.834,183.914,578.161,183.914,578.161C183.914,578.161,891.599,1008.609,891.599,1008.609C942.669,1045.087,986.443,1015.905,986.443,950.243C986.443,950.243,986.443,74.757,986.443,74.757C986.443,9.095,942.669,-20.087,891.599,16.391C891.599,16.391,183.914,446.839,183.914,446.839C183.914,446.839,183.914,60.166,183.914,60.166C183.914,23.687,162.027,1.8,140.14,1.8C140.14,1.8,81.774,1.8,81.774,1.8C59.887,1.8,38,30.983,38,60.166C38,60.166,38,964.834,38,964.834C38,994.017,59.887,1023.2,81.774,1023.2C81.774,1023.2,81.774,1023.2,81.774,1023.2" class="icon-cm_skip_backward"/><glyph unicode="&#x0058;" d="M942.669,1023.2C942.669,1023.2,884.303,1023.2,884.303,1023.2C862.416,1023.2,840.529,994.017,840.529,964.834C840.529,964.834,840.529,578.161,840.529,578.161C840.529,578.161,132.844,1008.609,132.844,1008.609C81.774,1045.087,38,1015.905,38,950.243C38,950.243,38,74.757,38,74.757C38,9.095,81.774,-20.087,132.844,16.391C132.844,16.391,840.529,446.839,840.529,446.839C840.529,446.839,840.529,60.166,840.529,60.166C840.529,23.687,862.416,1.8,884.303,1.8C884.303,1.8,942.669,1.8,942.669,1.8C964.556,1.8,986.443,30.983,986.443,60.166C986.443,60.166,986.443,964.834,986.443,964.834C986.443,994.017,964.556,1023.2,942.669,1023.2C942.669,1023.2,942.669,1023.2,942.669,1023.2" class="icon-cm_skip_forward"/><glyph unicode="&#x0059;" d="M1024,629.882C1018.261,641.361,1012.521,647.1,1001.042,652.84C1001.042,652.84,685.372,698.755,685.372,698.755C685.372,698.755,541.886,985.728,541.886,985.728C536.146,997.207,524.668,1002.946,513.189,1002.946C501.71,1002.946,490.231,997.207,484.491,985.728C484.491,985.728,341.005,698.755,341.005,698.755C341.005,698.755,25.335,652.84,25.335,652.84C13.856,652.84,2.377,641.361,2.377,629.882C-3.362,618.403,2.377,606.924,8.117,595.445C8.117,595.445,237.695,371.607,237.695,371.607C237.695,371.607,186.04,55.937,186.04,55.937C186.04,44.458,186.04,32.979,197.519,27.239C208.998,21.5,220.477,21.5,231.955,27.239C231.955,27.239,513.189,176.465,513.189,176.465C513.189,176.465,794.422,27.239,794.422,27.239C800.161,27.239,805.901,21.5,811.64,21.5C811.64,21.5,811.64,21.5,811.64,21.5C828.859,21.5,840.338,32.979,840.338,50.197C840.338,50.197,840.338,55.937,840.338,55.937C840.338,55.937,788.682,365.867,788.682,365.867C788.682,365.867,1018.261,589.706,1018.261,589.706C1024,606.924,1024,618.403,1024,629.882C1024,629.882,1024,629.882,1024,629.882C1024,629.882,1024,629.882,1024,629.882" class="icon-cm_star"/><glyph unicode="&#x005a;" d="M981.489,1024C981.489,1024,981.489,978.489,981.489,978.489C981.489,978.489,884.778,978.489,884.778,978.489C884.778,978.489,884.778,1024,884.778,1024C884.778,1024,139.533,1024,139.533,1024C139.533,1024,139.533,978.489,139.533,978.489C139.533,978.489,42.822,978.489,42.822,978.489C42.822,978.489,42.822,1024,42.822,1024C42.822,1024,3,1024,3,1024C3,1024,3,0,3,0C3,0,42.822,0,42.822,0C42.822,0,42.822,45.511,42.822,45.511C42.822,45.511,139.533,45.511,139.533,45.511C139.533,45.511,139.533,0,139.533,0C139.533,0,884.778,0,884.778,0C884.778,0,884.778,45.511,884.778,45.511C884.778,45.511,981.489,45.511,981.489,45.511C981.489,45.511,981.489,0,981.489,0C981.489,0,1021.311,0,1021.311,0C1021.311,0,1021.311,1024,1021.311,1024C1021.311,1024,981.489,1024,981.489,1024C981.489,1024,981.489,1024,981.489,1024M139.533,159.289C139.533,159.289,42.822,159.289,42.822,159.289C42.822,159.289,42.822,250.311,42.822,250.311C42.822,250.311,139.533,250.311,139.533,250.311C139.533,250.311,139.533,159.289,139.533,159.289C139.533,159.289,139.533,159.289,139.533,159.289M139.533,364.089C139.533,364.089,42.822,364.089,42.822,364.089C42.822,364.089,42.822,455.111,42.822,455.111C42.822,455.111,139.533,455.111,139.533,455.111C139.533,455.111,139.533,364.089,139.533,364.089C139.533,364.089,139.533,364.089,139.533,364.089M139.533,568.889C139.533,568.889,42.822,568.889,42.822,568.889C42.822,568.889,42.822,659.911,42.822,659.911C42.822,659.911,139.533,659.911,139.533,659.911C139.533,659.911,139.533,568.889,139.533,568.889C139.533,568.889,139.533,568.889,139.533,568.889M139.533,773.689C139.533,773.689,42.822,773.689,42.822,773.689C42.822,773.689,42.822,864.711,42.822,864.711C42.822,864.711,139.533,864.711,139.533,864.711C139.533,864.711,139.533,773.689,139.533,773.689C139.533,773.689,139.533,773.689,139.533,773.689M793.756,864.711C793.756,864.711,793.756,614.4,793.756,614.4C793.756,591.644,776.689,574.578,753.933,574.578C753.933,574.578,259,574.578,259,574.578C236.244,574.578,219.178,591.644,219.178,614.4C219.178,614.4,219.178,864.711,219.178,864.711C219.178,887.467,236.244,904.533,259,904.533C259,904.533,753.933,904.533,753.933,904.533C776.689,904.533,793.756,887.467,793.756,864.711C793.756,864.711,793.756,864.711,793.756,864.711M224.867,159.289C224.867,159.289,224.867,409.6,224.867,409.6C224.867,432.356,241.933,449.422,264.689,449.422C264.689,449.422,759.622,449.422,759.622,449.422C782.378,449.422,799.444,432.356,799.444,409.6C799.444,409.6,799.444,159.289,799.444,159.289C799.444,136.533,782.378,119.467,759.622,119.467C759.622,119.467,264.689,119.467,264.689,119.467C241.933,119.467,224.867,136.533,224.867,159.289C224.867,159.289,224.867,159.289,224.867,159.289M981.489,159.289C981.489,159.289,884.778,159.289,884.778,159.289C884.778,159.289,884.778,250.311,884.778,250.311C884.778,250.311,981.489,250.311,981.489,250.311C981.489,250.311,981.489,159.289,981.489,159.289C981.489,159.289,981.489,159.289,981.489,159.289M981.489,364.089C981.489,364.089,884.778,364.089,884.778,364.089C884.778,364.089,884.778,455.111,884.778,455.111C884.778,455.111,981.489,455.111,981.489,455.111C981.489,455.111,981.489,364.089,981.489,364.089C981.489,364.089,981.489,364.089,981.489,364.089M981.489,568.889C981.489,568.889,884.778,568.889,884.778,568.889C884.778,568.889,884.778,659.911,884.778,659.911C884.778,659.911,981.489,659.911,981.489,659.911C981.489,659.911,981.489,568.889,981.489,568.889C981.489,568.889,981.489,568.889,981.489,568.889M981.489,773.689C981.489,773.689,884.778,773.689,884.778,773.689C884.778,773.689,884.778,864.711,884.778,864.711C884.778,864.711,981.489,864.711,981.489,864.711C981.489,864.711,981.489,773.689,981.489,773.689C981.489,773.689,981.489,773.689,981.489,773.689M981.489,773.689" class="icon-cm_video"/><glyph unicode="&#x0061;" d="M793.6,683.76C798.72,683.76,803.84,678.64,803.84,668.4C803.84,668.4,803.84,350.96,803.84,350.96C803.84,345.84,798.72,340.72,793.6,340.72C783.36,335.6,778.24,335.6,773.12,335.6C773.12,335.6,737.28,335.6,737.28,335.6C732.16,335.6,721.92,340.72,721.92,350.96C721.92,350.96,721.92,678.64,721.92,678.64C721.92,683.76,727.04,694,737.28,694C737.28,694,773.12,694,773.12,694C778.24,688.88,788.48,683.76,793.6,683.76C793.6,683.76,793.6,683.76,793.6,683.76M604.16,842.48C604.16,842.48,51.2,842.48,51.2,842.48C20.48,842.48,0,816.88,0,791.28C0,791.28,0,233.2,0,233.2C0,202.48,25.6,182,51.2,182C51.2,182,604.16,182,604.16,182C629.76,182,650.24,202.48,660.48,222.96C665.6,233.2,665.6,238.32,665.6,248.56C665.6,248.56,665.6,781.04,665.6,781.04C665.6,791.28,665.6,801.52,660.48,806.64C645.12,827.12,629.76,842.48,604.16,842.48C604.16,842.48,604.16,842.48,604.16,842.48M1008.64,724.72C1008.64,724.72,870.4,683.76,870.4,683.76C865.28,683.76,860.16,678.64,860.16,668.4C860.16,668.4,860.16,345.84,860.16,345.84C860.16,340.72,865.28,335.6,870.4,330.48C870.4,330.48,1008.64,289.52,1008.64,289.52C1018.88,289.52,1024,294.64,1024,304.88C1024,304.88,1024,709.36,1024,709.36C1024,719.6,1013.76,724.72,1008.64,724.72C1008.64,724.72,1008.64,724.72,1008.64,724.72" class="icon-cm_videocam"/><glyph unicode="&#x0062;" d="M680.659,393.412C662.588,387.388,656.565,363.294,662.588,345.224C668.612,333.176,680.659,327.153,692.706,327.153C698.729,327.153,704.753,327.153,710.776,333.176C783.059,369.318,825.224,435.576,825.224,513.882C825.224,592.188,783.059,658.447,710.776,694.588C692.706,700.612,674.635,694.588,662.588,676.518C656.565,658.447,662.588,640.376,680.659,628.329C728.847,604.235,758.965,556.047,758.965,507.859C752.941,459.671,728.847,417.506,680.659,393.412C680.659,393.412,680.659,393.412,680.659,393.412C680.659,393.412,680.659,393.412,680.659,393.412M680.659,393.412M674.635,935.529C656.565,941.553,638.494,929.506,632.471,905.412C626.447,887.341,638.494,869.271,662.588,863.247C831.247,827.106,957.741,682.541,957.741,507.859C957.741,333.176,831.247,182.588,662.588,152.471C644.518,146.447,632.471,128.376,632.471,110.306C638.494,92.235,650.541,80.188,668.612,80.188C668.612,80.188,674.635,80.188,674.635,80.188C879.435,122.353,1024,297.035,1024,507.859C1024,718.682,879.435,899.388,674.635,935.529C674.635,935.529,674.635,935.529,674.635,935.529C674.635,935.529,674.635,935.529,674.635,935.529M674.635,935.529M560.188,989.741C542.118,995.765,524.047,989.741,512,977.694C512,977.694,246.965,712.659,246.965,712.659C246.965,712.659,42.165,712.659,42.165,712.659C18.071,712.659,0,694.588,0,670.494C0,670.494,0,351.247,0,351.247C0,327.153,18.071,309.082,42.165,309.082C42.165,309.082,246.965,309.082,246.965,309.082C246.965,309.082,512,44.047,512,44.047C518.024,38.024,530.071,32,542.118,32C548.141,32,554.165,32,560.188,38.024C578.259,44.047,590.306,62.118,590.306,80.188C590.306,80.188,590.306,953.6,590.306,953.6C590.306,971.671,578.259,983.718,560.188,989.741C560.188,989.741,560.188,989.741,560.188,989.741C560.188,989.741,560.188,989.741,560.188,989.741M560.188,989.741" class="icon-cm_volume_high"/><glyph unicode="&#x0063;" d="M788.684,385.464C769.411,379.04,762.986,353.342,769.411,334.069C775.835,321.22,788.684,314.796,801.533,314.796C807.957,314.796,814.382,314.796,820.806,321.22C891.474,359.766,942.87,430.435,942.87,513.952C942.87,597.469,897.899,668.138,820.806,706.684C801.533,713.108,782.26,706.684,769.411,687.411C762.986,668.138,769.411,648.864,788.684,636.016C840.079,610.318,865.777,558.923,865.777,507.528C865.777,456.132,840.079,411.162,788.684,385.464C788.684,385.464,788.684,385.464,788.684,385.464C788.684,385.464,788.684,385.464,788.684,385.464M788.684,385.464M666.62,1021.48C647.347,1027.904,628.074,1021.48,615.225,1008.631C615.225,1008.631,338.976,725.957,338.976,725.957C338.976,725.957,126.971,725.957,126.971,725.957C101.273,725.957,82,706.684,82,680.986C82,680.986,82,340.493,82,340.493C82,314.796,101.273,295.522,126.971,295.522C126.971,295.522,338.976,295.522,338.976,295.522C338.976,295.522,621.65,12.849,621.65,12.849C628.074,6.424,640.923,0,653.772,0C660.196,0,666.62,0,673.045,6.424C692.318,12.849,698.742,32.122,698.742,51.395C698.742,51.395,698.742,982.933,698.742,982.933C692.318,1002.206,679.469,1015.055,666.62,1021.48C666.62,1021.48,666.62,1021.48,666.62,1021.48C666.62,1021.48,666.62,1021.48,666.62,1021.48M666.62,1021.48" class="icon-cm_volume_medium"/><glyph unicode="&#x0064;" d="M570.564,1009.419C551.754,1015.689,532.944,1009.419,520.404,996.879C520.404,996.879,250.797,721.002,250.797,721.002C250.797,721.002,43.89,721.002,43.89,721.002C18.81,721.002,0,702.193,0,677.113C0,677.113,0,344.806,0,344.806C0,319.727,18.81,300.917,43.89,300.917C43.89,300.917,250.797,300.917,250.797,300.917C250.797,300.917,526.674,25.04,526.674,25.04C532.944,18.77,545.484,12.5,558.024,12.5C564.294,12.5,570.564,12.5,576.834,18.77C595.644,25.04,601.914,43.85,601.914,62.659C601.914,62.659,601.914,971.8,601.914,971.8C595.644,990.61,583.104,1003.149,570.564,1009.419C570.564,1009.419,570.564,1009.419,570.564,1009.419C570.564,1009.419,570.564,1009.419,570.564,1009.419M570.564,1009.419M1015.729,376.156C1015.729,376.156,884.061,514.095,884.061,514.095C884.061,514.095,1015.729,652.033,1015.729,652.033C1040.809,677.113,1003.189,714.732,978.11,689.653C978.11,689.653,846.441,551.714,846.441,551.714C846.441,551.714,714.772,689.653,714.772,689.653C689.693,714.732,652.073,677.113,677.153,652.033C677.153,652.033,808.821,514.095,808.821,514.095C808.821,514.095,677.153,376.156,677.153,376.156C652.073,351.076,689.693,313.457,714.772,338.537C714.772,338.537,846.441,476.475,846.441,476.475C846.441,476.475,978.11,338.537,978.11,338.537C1003.189,319.727,1040.809,351.076,1015.729,376.156C1015.729,376.156,1015.729,376.156,1015.729,376.156C1015.729,376.156,1015.729,376.156,1015.729,376.156M1015.729,376.156" class="icon-cm_volume_off"/></font>
</defs>
</svg>
